<svg xmlns="http://www.w3.org/2000/svg" xmlns:xlink="http://www.w3.org/1999/xlink" width="1080" zoomAndPan="magnify" viewBox="0 0 810 809.999993" height="1080" preserveAspectRatio="xMidYMid meet" version="1.0"><defs><g/><clipPath id="955cad4b62"><path d="M 0 0 L 809.992188 0 L 809.992188 809.992188 L 0 809.992188 Z M 0 0 " clip-rule="nonzero"/></clipPath><clipPath id="a7b410544b"><path d="M 809.992188 150 L 809.992188 659.992188 C 809.992188 742.835938 742.835938 809.992188 659.992188 809.992188 L 150 809.992188 C 67.15625 809.992188 0 742.835938 0 659.992188 L 0 150 C 0 67.15625 67.15625 0 150 0 L 659.992188 0 C 742.835938 0 809.992188 67.15625 809.992188 150 Z M 809.992188 150 " clip-rule="nonzero"/></clipPath><clipPath id="e02ec1c8b9"><path d="M 0 0 L 809.992188 0 L 809.992188 809.992188 L 0 809.992188 Z M 0 0 " clip-rule="nonzero"/></clipPath><clipPath id="8540f7f513"><path d="M 809.992188 150 L 809.992188 659.992188 C 809.992188 742.835938 742.835938 809.992188 659.992188 809.992188 L 150 809.992188 C 67.15625 809.992188 0 742.835938 0 659.992188 L 0 150 C 0 67.15625 67.15625 0 150 0 L 659.992188 0 C 742.835938 0 809.992188 67.15625 809.992188 150 Z M 809.992188 150 " clip-rule="nonzero"/></clipPath><clipPath id="21d4f6be5b"><rect x="0" width="810" y="0" height="810"/></clipPath><clipPath id="a00d160b04"><rect x="0" width="781" y="0" height="432"/></clipPath></defs><g clip-path="url(#955cad4b62)"><g clip-path="url(#a7b410544b)"><g transform="matrix(1, 0, 0, 1, 0, 0.000000000000039746)"><g clip-path="url(#21d4f6be5b)"><g clip-path="url(#e02ec1c8b9)"><g clip-path="url(#8540f7f513)"><path fill="#2d1b69" d="M 0 0 L 809.992188 0 L 809.992188 809.992188 L 0 809.992188 Z M 0 0 " fill-opacity="1" fill-rule="nonzero"/></g></g></g></g></g></g><g transform="matrix(1, 0, 0, 1, 15, 189)"><g clip-path="url(#a00d160b04)"><g fill="#ffffff" fill-opacity="1"><g transform="translate(0.257535, 357.347445)"><g><path d="M 302.453125 0 L 245.859375 0 L 245.5 -164.03125 L 184.9375 -25.234375 L 143.125 -25.234375 L 82.546875 -164.03125 L 82.546875 0 L 25.234375 0 L 25.234375 -252.703125 L 95.53125 -252.703125 L 164.03125 -102.375 L 232.515625 -252.703125 L 302.453125 -252.703125 Z M 302.453125 0 "/></g></g></g><g fill="#ffffff" fill-opacity="1"><g transform="translate(328.288965, 357.347445)"><g><path d="M 89.40625 -53.71875 L 196.46875 -53.71875 L 196.46875 0 L 25.234375 0 L 25.234375 -252.34375 L 89.40625 -252.34375 Z M 89.40625 -53.71875 "/></g></g></g><g fill="#ffffff" fill-opacity="1"><g transform="translate(530.154525, 357.347445)"><g><path d="M 143.484375 -254.515625 C 162.222656 -254.515625 180.664062 -250.664062 198.8125 -242.96875 C 216.957031 -235.28125 232.398438 -224.945312 245.140625 -211.96875 L 208.015625 -168 C 199.835938 -178.09375 190.039062 -186.082031 178.625 -191.96875 C 167.207031 -197.851562 155.851562 -200.796875 144.5625 -200.796875 C 124.613281 -200.796875 107.910156 -193.765625 94.453125 -179.703125 C 80.992188 -165.648438 74.265625 -148.285156 74.265625 -127.609375 C 74.265625 -106.460938 80.992188 -88.800781 94.453125 -74.625 C 107.910156 -60.445312 124.613281 -53.359375 144.5625 -53.359375 C 155.132812 -53.359375 166.128906 -56 177.546875 -61.28125 C 188.960938 -66.570312 199.117188 -73.785156 208.015625 -82.921875 L 245.5 -43.265625 C 231.800781 -29.316406 215.640625 -18.132812 197.015625 -9.71875 C 178.390625 -1.3125 159.820312 2.890625 141.3125 2.890625 C 103.34375 2.890625 71.738281 -9.484375 46.5 -34.234375 C 21.269531 -58.992188 8.65625 -89.878906 8.65625 -126.890625 C 8.65625 -163.179688 21.507812 -193.523438 47.21875 -217.921875 C 72.9375 -242.316406 105.023438 -254.515625 143.484375 -254.515625 Z M 143.484375 -254.515625 "/></g></g></g></g></g></svg>